<svg xmlns="http://www.w3.org/2000/svg" viewBox="0 0 540 180" width="100%" height="100%">
  <!-- Clean background -->
  <!-- "AL" text -->
  <text x="25" y="126" font-family="'Montserrat', sans-serif" font-weight="900" font-size="82" fill="#212529" letter-spacing="2">AL</text>
  
  <!-- Custom Integrated "V" with Swirl -->
  <g transform="translate(150, 0)">
    <!-- Left stroke of V -->
    <path d="M 5,54 L 38,126 L 56,126 L 40,90 L 22,54 H 5 Z" fill="#212529" />
    
    <!-- Right stroke of V flowing into the comet tail and spiral -->
    <!-- Solid black body of the tail and swirl -->
    <path d="M 38,126 L 68,60 C 85,32 105,25 125,25 C 152,25 168,45 165,70 C 162,92 144,106 122,102 C 104,98 94,80 102,64 C 108,52 120,48 126,56 C 132,62 128,74 122,76 C 114,78 108,70 112,62 C 115,56 122,58 120,64 M 38,126 L 56,126 L 82,70 C 94,50 108,45 125,45 C 142,45 152,56 150,70 C 148,84 136,92 122,90 C 110,88 104,78 109,68 C 112,62 118,60 120,64" fill="none" stroke="#212529" stroke-width="12" stroke-linejoin="round" stroke-linecap="round" />
  </g>
  
  <!-- "ACÍO" text -->
  <text x="315" y="126" font-family="'Montserrat', sans-serif" font-weight="900" font-size="82" fill="#212529" letter-spacing="2.5">ACÍO</text>
</svg>
